<svg width="1280" height="217" viewBox="0 0 1280 217" fill="none" xmlns="http://www.w3.org/2000/svg">
<g clip-path="url(#clip0)">
<path d="M50.6385 3.45312H0V214.063H40.8561V135.804H50.6385C73.0806 135.804 88.6174 128.323 98.9753 112.786C107.031 100.702 108.182 88.0425 108.182 69.6285C108.182 43.7338 104.154 30.4987 93.2209 18.9899C82.8631 8.05663 69.628 3.45312 50.6385 3.45312ZM50.0631 97.8249H40.8561V40.8566H51.214C68.4771 40.8566 69.628 48.9127 69.628 69.6285C69.628 91.4951 68.4771 97.8249 50.0631 97.8249Z" fill="#FF0A00"/>
<path d="M162.849 3.45312H121.993V213.488H214.638V172.632H162.849V3.45312Z" fill="#FF0A00"/>
<path d="M609.389 3.45312H493.726V42.0075H531.129V213.488H571.985V42.0075H609.389V3.45312Z" fill="#FF0A00"/>
<path d="M791.227 0C756.125 0 733.108 24.1684 733.108 60.9964C733.108 83.4385 737.711 105.881 769.936 117.965L791.802 126.596C803.887 131.2 806.188 131.775 806.188 152.491C806.188 172.056 803.886 177.235 789.501 177.235C775.69 177.235 773.388 167.452 773.388 161.698V147.312H731.957V163.424C731.957 193.922 756.701 216.94 789.501 216.94C815.971 216.94 847.62 205.431 847.62 151.916C847.62 120.842 841.865 101.852 811.943 91.4946L788.35 82.863C775.115 77.6841 774.539 74.8069 774.539 60.9964C774.539 42.5824 782.02 40.2806 790.076 40.2806C801.009 40.2806 806.188 46.6104 806.188 59.2701V71.3543H847.62V51.2139C847.62 26.4701 826.329 0 791.227 0Z" fill="#FF0A00"/>
<path d="M985.725 213.488H1086.43V172.632H1026.58V126.597H1078.37V88.6179H1026.58V42.0075H1086.43V3.45312H985.725V213.488Z" fill="#FF0A00"/>
<path d="M1256.76 216.94C1244.1 216.94 1233.16 206.582 1233.16 193.347C1233.16 180.688 1243.52 169.754 1256.76 169.754C1269.42 169.754 1280.35 180.112 1280.35 193.347C1279.77 206.582 1269.42 216.94 1256.76 216.94ZM1256.76 174.358C1245.82 174.358 1237.19 182.989 1237.19 193.923C1237.19 204.856 1245.82 213.488 1256.76 213.488C1267.69 213.488 1276.32 204.856 1276.32 193.923C1275.75 182.989 1267.11 174.358 1256.76 174.358Z" fill="#FF0A00"/>
<path d="M1248.12 204.856V180.688H1257.91C1263.09 180.688 1265.39 183.565 1265.39 187.593C1265.39 190.47 1263.66 192.772 1260.78 193.923L1265.96 204.856H1260.78L1256.18 195.073H1252.15V204.856H1248.12ZM1252.73 191.621H1256.18C1259.63 191.621 1260.78 190.47 1260.78 188.168C1260.78 185.866 1259.63 184.716 1256.76 184.716H1252.73V191.621V191.621Z" fill="#FF0A00"/>
<path d="M858.553 161.698C858.553 197.951 885.599 216.94 912.645 216.94C939.69 216.94 966.736 197.951 966.736 161.698V3.45312H884.448V42.0074H925.88V161.698C925.88 174.358 916.673 176.084 912.645 176.084C908.617 176.084 899.41 174.934 899.41 161.698V147.313H858.553V161.698V161.698Z" fill="#FF0A00"/>
<path d="M268.154 3.45312L218.667 213.488H258.947L267.579 171.481H310.161L318.793 213.488H359.073L310.161 3.45312H268.154ZM274.484 136.955L288.294 69.6285H289.445L303.256 136.955H274.484Z" fill="#FF0A00"/>
<path d="M440.21 107.032H439.635L401.656 3.45312H365.403V213.488H406.259V109.334H407.41L445.389 213.488H481.641V3.45312H440.21V107.032Z" fill="#FF0A00"/>
<path d="M1176.77 107.032H1176.19L1137.64 3.45312H1101.96V213.488H1142.82V109.334H1143.97L1181.95 213.488H1217.63V3.45312H1176.77V107.032Z" fill="#FF0A00"/>
<path d="M641.038 3.45312L591.55 214.063H631.831L640.463 172.056H683.045L691.676 214.063H731.957L682.469 3.45312H641.038V3.45312ZM647.368 136.955L661.178 69.6285H662.329L676.14 136.955H647.368Z" fill="#FF0A00"/>
</g>
<defs>
<clipPath id="clip0">
<rect width="1279.77" height="216.94" fill="white"/>
</clipPath>
</defs>
</svg>
